<svg xmlns="http://www.w3.org/2000/svg" width="682.667" height="682.667" preserveAspectRatio="xMidYMid meet" version="1.0" viewBox="0 0 512 512"><metadata>Created by potrace 1.14, written by Peter Selinger 2001-2017</metadata><g fill="#000" stroke="none"><path d="M595 3993 c-35 -9 -87 -54 -101 -89 -12 -28 -14 -151 -14 -694 -1 -429 3 -673 10 -698 5 -20 27 -55 48 -78 20 -22 62 -69 92 -104 30 -35 64 -73 75 -84 11 -12 51 -57 89 -101 39 -44 75 -84 80 -90 6 -5 60 -66 121 -135 60 -69 126 -143 147 -165 20 -22 46 -51 58 -65 62 -72 127 -146 145 -164 11 -12 69 -78 130 -146 60 -69 126 -143 146 -165 20 -22 75 -84 123 -137 97 -109 118 -120 223 -118 80 2 875 2 915 1 98 -4 177 104 150 202 -8 27 -148 215 -192 257 -3 3 -34 41 -70 85 -35 44 -67 82 -70 85 -3 3 -34 41 -70 85 -72 89 -290 353 -354 429 -22 27 -47 58 -55 69 -8 12 -22 28 -30 37 -9 9 -31 35 -49 57 -19 23 -41 51 -50 61 -10 11 -29 35 -44 54 -15 19 -66 81 -114 139 -47 57 -101 122 -119 144 -18 22 -90 110 -161 196 -157 190 -373 452 -411 499 -15 19 -51 61 -78 95 -28 33 -122 148 -210 255 -88 107 -175 212 -194 232 -44 48 -103 66 -166 51z" transform="translate(0.000000,512.000000) scale(0.100000,-0.100000)"/><path d="M4405 3979 c-16 -9 -94 -94 -172 -190 -79 -95 -151 -182 -160 -194 -10 -11 -47 -57 -82 -100 -36 -44 -95 -116 -131 -160 -393 -474 -963 -1181 -972 -1205 -15 -44 -1 -114 29 -150 42 -50 67 -57 197 -58 65 -1 120 -2 121 -4 2 -2 55 -1 119 2 64 3 116 3 116 0 0 -6 404 -3 516 3 52 3 80 10 100 24 34 25 508 499 528 528 7 11 16 32 20 47 12 50 8 1342 -4 1374 -34 88 -140 128 -225 83z" transform="translate(0.000000,512.000000) scale(0.100000,-0.100000)"/></g></svg>